<?xml version="1.0" standalone="no"?>
<!DOCTYPE svg PUBLIC "-//W3C//DTD SVG 20010904//EN"
 "http://www.w3.org/TR/2001/REC-SVG-20010904/DTD/svg10.dtd">
<svg version="1.0" xmlns="http://www.w3.org/2000/svg"
 width="410.000000pt" height="410.000000pt" viewBox="0 0 410.000000 410.000000"
 preserveAspectRatio="xMidYMid meet">
<metadata>
Created by potrace 1.11, written by Peter Selinger 2001-2013
</metadata>
<g transform="translate(0.000000,410.000000) scale(0.100000,-0.100000)"
fill="#000000" stroke="none">
<path d="M5 2391 c-3 -2 -5 -111 -5 -241 l0 -237 143 1 c115 1 148 5 175 19
33 18 75 74 66 88 -2 4 0 10 5 13 16 10 -19 96 -46 113 -21 14 -22 18 -9 25
32 18 46 67 37 133 -3 27 -70 82 -93 77 -5 -1 -8 1 -8 6 0 7 -258 11 -265 3z
m262 -105 c22 -19 23 -24 13 -48 -13 -27 -62 -44 -94 -32 -9 3 -16 1 -16 -6 0
-6 -5 -8 -12 -4 -7 4 -26 8 -43 8 -29 1 -30 3 -30 46 -1 25 1 48 3 53 2 4 37
7 79 6 61 -1 79 -6 100 -23z m-111 -169 c23 0 47 3 52 7 6 3 13 2 17 -4 3 -5
14 -10 23 -10 26 0 40 -13 47 -40 9 -37 -14 -61 -64 -66 -23 -2 -47 -6 -52 -9
-5 -4 -9 -1 -9 6 0 9 -3 9 -14 0 -10 -8 -16 -9 -21 -1 -4 7 -12 7 -26 0 -21
-12 -20 -14 -23 63 -3 51 3 69 17 60 6 -3 29 -6 53 -6z"/>
<path d="M455 2387 c-26 -20 -26 -59 -1 -77 27 -19 37 -19 59 -2 18 16 22 48
9 68 -12 19 -47 25 -67 11z"/>
<path d="M1970 2385 c-42 -24 -117 -102 -106 -112 3 -3 2 -11 -3 -17 -21 -25
-29 -113 -16 -171 3 -16 7 -36 7 -42 1 -7 5 -13 10 -13 4 0 8 -6 8 -13 0 -14
62 -81 77 -83 4 0 23 -8 42 -16 19 -9 45 -15 58 -13 13 1 23 -2 23 -7 0 -5 8
-5 18 0 9 4 24 8 32 7 8 0 18 4 22 10 5 6 8 5 8 -3 0 -8 15 -3 42 14 70 44 76
57 75 159 0 49 -3 95 -8 100 -7 10 -175 12 -185 2 -9 -9 -11 -55 -3 -68 5 -8
26 -12 58 -10 31 1 51 -2 52 -8 7 -60 3 -75 -26 -93 -42 -26 -119 -22 -165 9
-56 36 -80 121 -53 191 6 17 9 32 6 32 -9 0 67 70 78 71 13 2 29 6 32 9 8 7
37 7 37 -1 0 -4 7 -6 15 -3 8 3 32 -5 55 -17 l41 -23 26 26 c23 23 25 29 13
43 -8 9 -31 25 -51 36 -46 23 -179 25 -219 4z"/>
<path d="M1005 2336 c-8 -6 -15 -27 -17 -46 -2 -22 -8 -35 -18 -36 -8 -1 -21
-2 -28 -3 -9 -1 -12 -13 -10 -38 3 -34 6 -38 31 -37 l27 1 1 -88 c2 -100 1
-95 18 -130 15 -31 87 -65 95 -45 3 8 5 7 5 -1 1 -9 8 -10 25 -3 13 5 27 6 31
2 11 -11 1 62 -10 74 -6 8 -16 9 -26 3 -11 -6 -23 -3 -36 9 -17 14 -20 29 -19
98 l0 82 45 -2 c35 -1 45 3 47 17 1 9 -2 17 -8 17 -6 0 -5 6 2 15 9 11 9 15 1
15 -7 0 -10 4 -7 8 3 5 -14 8 -37 8 -41 -1 -42 0 -44 34 0 19 -1 40 -2 46 -1
5 -13 10 -27 10 -14 0 -32 -5 -39 -10z"/>
<path d="M3652 2264 c-7 -13 -16 -15 -38 -9 -48 13 -54 14 -54 3 0 -7 -5 -7
-13 1 -8 6 -17 7 -21 3 -4 -4 -11 -7 -14 -7 -4 0 -21 -9 -38 -19 -78 -47 -99
-169 -42 -252 24 -36 53 -50 128 -64 57 -10 92 -38 87 -68 -5 -28 -27 -63 -37
-57 -5 3 -11 1 -14 -3 -5 -8 -74 -9 -80 -1 -1 2 -12 18 -24 36 -13 18 -29 30
-40 29 -9 -2 -20 2 -24 8 -5 8 -8 7 -8 -2 0 -7 -4 -11 -9 -7 -6 3 -8 -10 -6
-31 3 -36 39 -85 79 -106 24 -13 146 -19 146 -7 0 5 6 9 13 9 26 0 75 60 80
98 10 77 8 90 -25 117 -17 15 -27 30 -22 33 20 14 51 68 49 85 -2 9 0 17 5 17
4 0 4 16 0 35 -4 19 -6 35 -3 35 2 0 -3 10 -11 22 -20 28 -20 33 0 53 15 15
15 18 -6 41 -27 28 -45 31 -58 8z m-54 -88 c41 -14 58 -63 41 -117 -18 -59
-78 -77 -123 -36 -32 28 -40 71 -21 111 22 45 54 58 103 42z"/>
<path d="M1355 2260 c-11 -4 -24 -5 -28 -3 -4 3 -14 -1 -22 -7 -8 -7 -15 -9
-15 -5 0 19 -69 -70 -75 -98 -33 -136 41 -243 164 -240 65 2 91 6 91 15 0 4 6
8 14 8 19 0 37 25 31 41 -11 30 -42 39 -78 24 -18 -7 -42 -12 -53 -10 -10 2
-27 4 -36 4 -23 1 -61 42 -49 54 5 5 61 9 124 9 78 0 117 4 120 12 4 13 2 48
-7 91 -6 35 -63 92 -97 99 -13 3 -33 7 -44 9 -11 3 -29 1 -40 -3z m89 -100
c10 -10 16 -22 13 -27 -4 -7 -144 -10 -166 -4 -10 3 28 36 54 47 35 15 72 9
99 -16z"/>
<path d="M1750 2259 c-18 -4 -39 -14 -45 -23 -10 -13 -13 -13 -27 3 -10 12
-25 17 -46 13 -30 -4 -30 -4 -28 -63 1 -32 -2 -59 -6 -59 -5 0 -3 -10 3 -22 7
-13 12 -23 12 -23 0 0 -5 -10 -12 -22 -6 -13 -8 -23 -3 -23 12 0 9 -63 -3 -72
-6 -5 -5 -8 2 -8 7 0 10 -7 7 -15 -3 -8 1 -22 10 -30 9 -9 16 -12 16 -6 0 5 8
8 18 6 10 -2 23 0 28 3 5 4 10 53 10 109 0 97 2 104 26 127 18 16 36 23 57 21
17 -1 31 0 32 4 0 3 2 22 5 42 5 42 -5 49 -56 38z"/>
<path d="M2468 2265 c-3 -3 -18 -8 -34 -11 -52 -9 -108 -65 -118 -121 -2 -10
-5 -22 -6 -28 -1 -5 -2 -12 0 -15 1 -3 3 -22 5 -43 2 -21 8 -44 15 -52 7 -8
10 -15 6 -15 -3 0 2 -9 12 -21 18 -22 72 -54 84 -51 4 1 19 -3 33 -8 18 -7 25
-6 25 2 0 6 3 8 7 5 3 -4 26 5 50 19 24 14 43 21 42 17 -4 -26 3 -32 39 -29
l37 3 1 166 c0 110 -4 167 -10 168 -6 0 -21 2 -34 3 -14 2 -27 -4 -33 -16 -10
-18 -11 -18 -37 0 -15 11 -35 18 -44 17 -10 -2 -18 1 -18 6 0 10 -14 12 -22 4z
m40 -91 c6 -1 18 -2 25 -2 25 -3 50 -62 44 -105 -9 -64 -41 -85 -123 -79 -28
3 -65 70 -60 110 3 17 13 40 23 51 21 22 65 42 73 32 3 -3 11 -6 18 -7z"/>
<path d="M2878 2262 c-14 -2 -32 -10 -38 -18 -15 -17 -41 -19 -37 -2 2 10 -22
13 -63 9 -6 -1 -10 -65 -10 -172 l0 -170 42 3 42 4 2 99 c1 55 2 107 3 115 3
35 90 60 112 33 10 -11 15 -9 30 14 24 36 24 60 -1 73 -11 6 -20 8 -20 5 0 -3
-8 -2 -17 3 -10 4 -30 6 -45 4z"/>
<path d="M3148 2265 c-3 -3 -16 -8 -28 -10 -55 -11 -107 -66 -117 -125 -10
-55 -11 -80 -3 -80 5 0 7 -8 5 -19 -4 -23 35 -82 70 -105 28 -18 135 -30 135
-15 0 5 6 9 14 9 7 0 19 7 27 16 12 14 14 14 20 -4 6 -16 15 -20 41 -18 18 2
35 4 38 5 3 0 5 74 4 163 l-1 163 -24 5 c-28 7 -61 1 -54 -10 3 -4 -2 -10 -10
-14 -8 -3 -15 -2 -15 2 0 15 -69 42 -76 31 -5 -8 -9 -8 -13 0 -4 6 -10 9 -13
6z m67 -92 c5 1 20 -13 32 -32 28 -41 26 -89 -5 -128 -17 -22 -29 -26 -67 -25
-62 0 -92 33 -90 97 2 66 58 116 105 94 8 -4 19 -6 25 -6z"/>
<path d="M3904 2260 c-6 -5 -12 -6 -38 -9 -8 0 -30 -17 -50 -36 -32 -30 -41
-51 -37 -77 0 -5 -3 -8 -8 -8 -5 0 -7 -24 -5 -52 7 -104 60 -163 154 -172 40
-4 120 11 130 24 3 4 13 11 23 17 17 9 16 11 -9 36 -28 29 -50 34 -56 16 -4
-11 -44 -14 -103 -8 -20 2 -55 34 -55 51 0 8 81 11 199 9 l53 -1 -4 64 c-2 42
-9 69 -21 80 -9 10 -17 22 -17 27 0 5 -7 9 -15 9 -8 0 -15 5 -15 10 0 6 -8 10
-18 10 -10 0 -22 3 -26 7 -8 8 -75 11 -82 3z m91 -94 c44 -29 26 -41 -63 -42
-45 0 -82 1 -82 2 0 8 47 52 60 56 24 8 57 2 85 -16z"/>
<path d="M448 2249 c-6 -4 -8 -16 -5 -28 3 -12 2 -21 -1 -21 -4 0 -7 -11 -7
-25 0 -14 2 -25 5 -25 8 0 5 -68 -2 -76 -4 -3 -3 -16 1 -28 4 -11 6 -32 4 -46
-5 -35 -4 -70 2 -81 8 -12 73 -8 78 5 3 10 1 312 -2 326 -1 8 -61 6 -73 -1z"/>
<path d="M601 2252 c-6 -2 14 -40 43 -85 l53 -82 -53 -75 c-29 -41 -53 -81
-53 -87 -1 -9 13 -12 47 -10 45 3 48 5 78 55 35 57 33 58 84 -20 23 -35 28
-37 72 -35 53 2 53 2 -8 88 -19 25 -34 51 -34 57 0 5 -7 13 -16 16 -15 6 -15
9 5 29 11 13 21 29 21 35 0 7 5 12 10 12 6 0 10 4 10 10 0 5 11 26 25 46 14
20 23 40 20 43 -10 10 -80 6 -90 -4 -12 -13 -33 -44 -42 -65 -18 -39 -27 -36
-55 19 -27 54 -30 56 -68 56 -22 0 -44 -1 -49 -3z"/>
<path d="M340 1865 c0 -6 -62 -10 -167 -10 l-168 0 -3 -29 c-3 -26 -1 -28 22
-22 15 4 26 2 26 -3 0 -6 6 -8 13 -5 23 8 147 11 147 3 0 -5 7 -6 16 -2 22 8
784 9 784 1 0 -4 6 -5 13 -2 23 8 147 11 147 3 0 -5 7 -6 16 -2 22 8 784 9
784 1 0 -4 6 -5 13 -2 23 8 147 11 147 3 0 -5 7 -6 16 -2 22 8 784 9 784 1 0
-4 6 -5 13 -2 23 8 147 11 147 3 0 -5 7 -6 15 -3 9 4 70 7 137 8 117 1 121 2
124 24 4 24 2 24 -73 25 -25 0 -40 4 -36 10 4 6 1 7 -8 1 -20 -12 -69 -12 -69
1 0 7 -3 7 -8 0 -6 -9 -42 -12 -67 -5 -5 1 -14 1 -20 0 -30 -8 -65 -5 -65 4 0
8 -3 8 -8 1 -6 -9 -295 -14 -312 -5 -3 1 -9 1 -15 0 -28 -7 -96 -6 -101 1 -3
5 -11 6 -17 2 -16 -10 -217 -11 -223 -1 -3 4 -14 3 -24 -2 -22 -12 -42 -10
-52 5 -5 7 -8 7 -8 0 0 -9 -243 -13 -275 -5 -5 1 -14 1 -20 0 -27 -8 -175 -5
-175 3 0 6 -5 6 -12 0 -15 -11 -97 -11 -115 0 -8 5 -13 4 -13 -2 0 -12 -27
-10 -47 2 -7 5 -13 4 -13 -1 0 -12 -73 -10 -82 3 -5 7 -8 7 -8 0 0 -12 -119
-14 -137 -2 -7 5 -13 5 -13 0 0 -12 -284 -10 -292 2 -5 6 -8 6 -8 -2 0 -6 -9
-11 -20 -10 -11 1 -20 5 -20 10 0 6 -5 5 -12 0 -11 -8 -203 -11 -218 -3 -3 1
-9 1 -15 0 -28 -7 -96 -6 -101 1 -3 5 -10 6 -17 2 -17 -10 -97 -12 -103 -2 -3
5 -13 5 -23 0 -19 -11 -39 -10 -58 2 -7 5 -13 4 -13 -1 0 -12 -93 -10 -102 3
-5 7 -8 7 -8 0z"/>
<path d="M3976 1862 c-2 -4 -48 -8 -101 -7 -84 1 -98 -2 -106 -17 -16 -29 -3
-36 61 -34 33 1 60 -1 60 -5 0 -4 15 -4 33 0 17 3 65 6 105 5 l73 -1 -3 26
c-3 24 -7 26 -48 26 -25 0 -50 4 -57 8 -6 4 -14 4 -17 -1z"/>
</g>
</svg>
