<?xml version="1.0" encoding="utf-8"?>
<!-- Generator: Adobe Illustrator 19.0.0, SVG Export Plug-In . SVG Version: 6.00 Build 0)  -->
<svg version="1.1" id="Capa_1" xmlns="http://www.w3.org/2000/svg" xmlns:xlink="http://www.w3.org/1999/xlink" x="0px" y="0px"
	 viewBox="-49 141 512 512" style="enable-background:new -49 141 512 512;" xml:space="preserve">
<g>
	<g>
		<g>
			<path d="M385.3,450.3h-69.9c6.8-8.9,10.9-19.9,10.9-32v-86.7c0-29.4-23.9-53.3-53.3-53.3H24.3c-29.4,0-53.3,23.9-53.3,53.3v86.7
				c0,29.4,23.9,53.3,53.3,53.3H79c0,35.3,28.7,64,64,64s64-28.7,64-64h66h112.3c5.9,0,10.7-4.8,10.7-10.7S391.2,450.3,385.3,450.3z
				 M143,514.3c-23.5,0-42.7-19.1-42.7-42.7c0-23.5,19.1-42.7,42.7-42.7s42.7,19.1,42.7,42.7C185.7,495.2,166.5,514.3,143,514.3z
				 M305,418.3c0,17.6-14.4,32-32,32h-69.9c-8.8-24.8-32.3-42.7-60.1-42.7s-51.2,17.9-60.1,42.7H24.3c-17.6,0-32-14.4-32-32v-54.7H3
				c5.9,0,10.7-4.8,10.7-10.7S8.9,342.3,3,342.3H-7.7v-10.7c0-17.6,14.4-32,32-32H273c17.6,0,32,14.4,32,32V418.3z"/>
			<circle cx="143" cy="471.7" r="21.3"/>
		</g>
	</g>
</g>
</svg>
